<mxfile host="app.diagrams.net" agent="Mozilla/5.0 (Windows NT 10.0; Win64; x64) AppleWebKit/537.36 (KHTML, like Gecko) Chrome/133.0.0.0 Safari/537.36 OPR/118.0.0.0" version="26.2.14">
  <diagram name="PÃ¡gina-1" id="NWqbR3ZTCGvZMH2JWiIL">
    <mxGraphModel dx="2212" dy="1957" grid="1" gridSize="10" guides="1" tooltips="1" connect="1" arrows="1" fold="1" page="1" pageScale="1" pageWidth="827" pageHeight="1169" math="0" shadow="0">
      <root>
        <mxCell id="0" />
        <mxCell id="1" parent="0" />
        <mxCell id="UVC26Ji7Nt3AM2qskTI1-7" value="Imagen" style="whiteSpace=wrap;html=1;align=center;" vertex="1" parent="1">
          <mxGeometry x="530" y="90" width="100" height="40" as="geometry" />
        </mxCell>
        <mxCell id="UVC26Ji7Nt3AM2qskTI1-8" value="Usuario" style="whiteSpace=wrap;html=1;align=center;" vertex="1" parent="1">
          <mxGeometry x="110" y="90" width="100" height="40" as="geometry" />
        </mxCell>
        <mxCell id="UVC26Ji7Nt3AM2qskTI1-9" value="Etiqueta" style="whiteSpace=wrap;html=1;align=center;" vertex="1" parent="1">
          <mxGeometry x="350" y="400" width="100" height="40" as="geometry" />
        </mxCell>
        <mxCell id="UVC26Ji7Nt3AM2qskTI1-11" value="url" style="ellipse;whiteSpace=wrap;html=1;align=center;" vertex="1" parent="1">
          <mxGeometry x="430" y="20" width="100" height="40" as="geometry" />
        </mxCell>
        <mxCell id="UVC26Ji7Nt3AM2qskTI1-12" value="id_imagen" style="ellipse;whiteSpace=wrap;html=1;align=center;fontStyle=4;" vertex="1" parent="1">
          <mxGeometry x="690" y="260" width="100" height="40" as="geometry" />
        </mxCell>
        <mxCell id="UVC26Ji7Nt3AM2qskTI1-13" value="artista" style="ellipse;whiteSpace=wrap;html=1;align=center;" vertex="1" parent="1">
          <mxGeometry x="640" width="100" height="40" as="geometry" />
        </mxCell>
        <mxCell id="UVC26Ji7Nt3AM2qskTI1-14" value="clasificacion" style="ellipse;whiteSpace=wrap;html=1;align=center;" vertex="1" parent="1">
          <mxGeometry x="680" y="50" width="100" height="40" as="geometry" />
        </mxCell>
        <mxCell id="UVC26Ji7Nt3AM2qskTI1-15" value="url_fuente" style="ellipse;whiteSpace=wrap;html=1;align=center;" vertex="1" parent="1">
          <mxGeometry x="700" y="120" width="100" height="40" as="geometry" />
        </mxCell>
        <mxCell id="UVC26Ji7Nt3AM2qskTI1-16" value="fecha_insercion" style="ellipse;whiteSpace=wrap;html=1;align=center;" vertex="1" parent="1">
          <mxGeometry x="580" y="240" width="100" height="40" as="geometry" />
        </mxCell>
        <mxCell id="UVC26Ji7Nt3AM2qskTI1-17" value="fecha_actualizacion" style="ellipse;whiteSpace=wrap;html=1;align=center;" vertex="1" parent="1">
          <mxGeometry x="700" y="190" width="100" height="40" as="geometry" />
        </mxCell>
        <mxCell id="UVC26Ji7Nt3AM2qskTI1-18" value="api_origen" style="ellipse;whiteSpace=wrap;html=1;align=center;" vertex="1" parent="1">
          <mxGeometry x="520" y="-20" width="100" height="40" as="geometry" />
        </mxCell>
        <mxCell id="UVC26Ji7Nt3AM2qskTI1-19" value="" style="endArrow=none;html=1;rounded=0;" edge="1" parent="1" source="UVC26Ji7Nt3AM2qskTI1-7" target="UVC26Ji7Nt3AM2qskTI1-18">
          <mxGeometry relative="1" as="geometry">
            <mxPoint x="80" y="420" as="sourcePoint" />
            <mxPoint x="240" y="420" as="targetPoint" />
          </mxGeometry>
        </mxCell>
        <mxCell id="UVC26Ji7Nt3AM2qskTI1-20" value="" style="endArrow=none;html=1;rounded=0;" edge="1" parent="1" source="UVC26Ji7Nt3AM2qskTI1-7" target="UVC26Ji7Nt3AM2qskTI1-11">
          <mxGeometry relative="1" as="geometry">
            <mxPoint x="90" y="430" as="sourcePoint" />
            <mxPoint x="250" y="430" as="targetPoint" />
          </mxGeometry>
        </mxCell>
        <mxCell id="UVC26Ji7Nt3AM2qskTI1-21" value="" style="endArrow=none;html=1;rounded=0;" edge="1" parent="1" source="UVC26Ji7Nt3AM2qskTI1-7" target="UVC26Ji7Nt3AM2qskTI1-13">
          <mxGeometry relative="1" as="geometry">
            <mxPoint x="100" y="440" as="sourcePoint" />
            <mxPoint x="260" y="440" as="targetPoint" />
          </mxGeometry>
        </mxCell>
        <mxCell id="UVC26Ji7Nt3AM2qskTI1-22" value="" style="endArrow=none;html=1;rounded=0;" edge="1" parent="1" source="UVC26Ji7Nt3AM2qskTI1-7" target="UVC26Ji7Nt3AM2qskTI1-14">
          <mxGeometry relative="1" as="geometry">
            <mxPoint x="110" y="450" as="sourcePoint" />
            <mxPoint x="270" y="450" as="targetPoint" />
          </mxGeometry>
        </mxCell>
        <mxCell id="UVC26Ji7Nt3AM2qskTI1-23" value="" style="endArrow=none;html=1;rounded=0;" edge="1" parent="1" source="UVC26Ji7Nt3AM2qskTI1-7" target="UVC26Ji7Nt3AM2qskTI1-15">
          <mxGeometry relative="1" as="geometry">
            <mxPoint x="120" y="460" as="sourcePoint" />
            <mxPoint x="280" y="460" as="targetPoint" />
          </mxGeometry>
        </mxCell>
        <mxCell id="UVC26Ji7Nt3AM2qskTI1-24" value="" style="endArrow=none;html=1;rounded=0;" edge="1" parent="1" source="UVC26Ji7Nt3AM2qskTI1-7" target="UVC26Ji7Nt3AM2qskTI1-12">
          <mxGeometry relative="1" as="geometry">
            <mxPoint x="130" y="470" as="sourcePoint" />
            <mxPoint x="290" y="470" as="targetPoint" />
          </mxGeometry>
        </mxCell>
        <mxCell id="UVC26Ji7Nt3AM2qskTI1-25" value="" style="endArrow=none;html=1;rounded=0;" edge="1" parent="1" source="UVC26Ji7Nt3AM2qskTI1-7" target="UVC26Ji7Nt3AM2qskTI1-17">
          <mxGeometry relative="1" as="geometry">
            <mxPoint x="140" y="480" as="sourcePoint" />
            <mxPoint x="300" y="480" as="targetPoint" />
          </mxGeometry>
        </mxCell>
        <mxCell id="UVC26Ji7Nt3AM2qskTI1-26" value="" style="endArrow=none;html=1;rounded=0;" edge="1" parent="1" source="UVC26Ji7Nt3AM2qskTI1-7" target="UVC26Ji7Nt3AM2qskTI1-16">
          <mxGeometry relative="1" as="geometry">
            <mxPoint x="150" y="490" as="sourcePoint" />
            <mxPoint x="310" y="490" as="targetPoint" />
          </mxGeometry>
        </mxCell>
        <mxCell id="UVC26Ji7Nt3AM2qskTI1-28" value="id_imagen_api" style="ellipse;whiteSpace=wrap;html=1;align=center;" vertex="1" parent="1">
          <mxGeometry x="500" y="280" width="100" height="40" as="geometry" />
        </mxCell>
        <mxCell id="UVC26Ji7Nt3AM2qskTI1-29" value="" style="endArrow=none;html=1;rounded=0;" edge="1" parent="1" source="UVC26Ji7Nt3AM2qskTI1-28" target="UVC26Ji7Nt3AM2qskTI1-7">
          <mxGeometry relative="1" as="geometry">
            <mxPoint x="330" y="410" as="sourcePoint" />
            <mxPoint x="490" y="410" as="targetPoint" />
          </mxGeometry>
        </mxCell>
        <mxCell id="UVC26Ji7Nt3AM2qskTI1-30" value="nombre" style="ellipse;whiteSpace=wrap;html=1;align=center;" vertex="1" parent="1">
          <mxGeometry x="500" y="430" width="100" height="40" as="geometry" />
        </mxCell>
        <mxCell id="UVC26Ji7Nt3AM2qskTI1-31" value="id_etiqueta" style="ellipse;whiteSpace=wrap;html=1;align=center;fontStyle=4;" vertex="1" parent="1">
          <mxGeometry x="180" y="400" width="100" height="40" as="geometry" />
        </mxCell>
        <mxCell id="UVC26Ji7Nt3AM2qskTI1-32" value="api_origen" style="ellipse;whiteSpace=wrap;html=1;align=center;" vertex="1" parent="1">
          <mxGeometry x="340" y="490" width="100" height="40" as="geometry" />
        </mxCell>
        <mxCell id="UVC26Ji7Nt3AM2qskTI1-33" value="" style="endArrow=none;html=1;rounded=0;" edge="1" parent="1" source="UVC26Ji7Nt3AM2qskTI1-31" target="UVC26Ji7Nt3AM2qskTI1-9">
          <mxGeometry relative="1" as="geometry">
            <mxPoint x="80" y="420" as="sourcePoint" />
            <mxPoint x="240" y="420" as="targetPoint" />
          </mxGeometry>
        </mxCell>
        <mxCell id="UVC26Ji7Nt3AM2qskTI1-34" value="" style="endArrow=none;html=1;rounded=0;" edge="1" parent="1" source="UVC26Ji7Nt3AM2qskTI1-9" target="UVC26Ji7Nt3AM2qskTI1-30">
          <mxGeometry relative="1" as="geometry">
            <mxPoint x="90" y="430" as="sourcePoint" />
            <mxPoint x="250" y="430" as="targetPoint" />
          </mxGeometry>
        </mxCell>
        <mxCell id="UVC26Ji7Nt3AM2qskTI1-35" value="" style="endArrow=none;html=1;rounded=0;" edge="1" parent="1" source="UVC26Ji7Nt3AM2qskTI1-9" target="UVC26Ji7Nt3AM2qskTI1-32">
          <mxGeometry relative="1" as="geometry">
            <mxPoint x="100" y="440" as="sourcePoint" />
            <mxPoint x="260" y="440" as="targetPoint" />
          </mxGeometry>
        </mxCell>
        <mxCell id="UVC26Ji7Nt3AM2qskTI1-36" value="id_usuario" style="ellipse;whiteSpace=wrap;html=1;align=center;fontStyle=4;" vertex="1" parent="1">
          <mxGeometry x="100" y="-70" width="100" height="40" as="geometry" />
        </mxCell>
        <mxCell id="UVC26Ji7Nt3AM2qskTI1-37" value="username" style="ellipse;whiteSpace=wrap;html=1;align=center;" vertex="1" parent="1">
          <mxGeometry x="-80" y="-50" width="100" height="40" as="geometry" />
        </mxCell>
        <mxCell id="UVC26Ji7Nt3AM2qskTI1-38" value="email" style="ellipse;whiteSpace=wrap;html=1;align=center;" vertex="1" parent="1">
          <mxGeometry x="-180" y="120" width="100" height="40" as="geometry" />
        </mxCell>
        <mxCell id="UVC26Ji7Nt3AM2qskTI1-39" value="password" style="ellipse;whiteSpace=wrap;html=1;align=center;" vertex="1" parent="1">
          <mxGeometry y="300" width="100" height="40" as="geometry" />
        </mxCell>
        <mxCell id="UVC26Ji7Nt3AM2qskTI1-40" value="telefono" style="ellipse;whiteSpace=wrap;html=1;align=center;" vertex="1" parent="1">
          <mxGeometry x="90" y="260" width="100" height="40" as="geometry" />
        </mxCell>
        <mxCell id="UVC26Ji7Nt3AM2qskTI1-41" value="genero" style="ellipse;whiteSpace=wrap;html=1;align=center;" vertex="1" parent="1">
          <mxGeometry x="-20" y="200" width="100" height="40" as="geometry" />
        </mxCell>
        <mxCell id="UVC26Ji7Nt3AM2qskTI1-42" value="fecha_registro" style="ellipse;whiteSpace=wrap;html=1;align=center;" vertex="1" parent="1">
          <mxGeometry x="-160" y="190" width="100" height="40" as="geometry" />
        </mxCell>
        <mxCell id="UVC26Ji7Nt3AM2qskTI1-43" value="foto_perfil" style="ellipse;whiteSpace=wrap;html=1;align=center;" vertex="1" parent="1">
          <mxGeometry x="-190" y="20" width="100" height="40" as="geometry" />
        </mxCell>
        <mxCell id="UVC26Ji7Nt3AM2qskTI1-44" value="" style="endArrow=none;html=1;rounded=0;" edge="1" parent="1" source="UVC26Ji7Nt3AM2qskTI1-8" target="UVC26Ji7Nt3AM2qskTI1-39">
          <mxGeometry relative="1" as="geometry">
            <mxPoint x="30" y="530" as="sourcePoint" />
            <mxPoint x="190" y="530" as="targetPoint" />
          </mxGeometry>
        </mxCell>
        <mxCell id="UVC26Ji7Nt3AM2qskTI1-45" value="" style="endArrow=none;html=1;rounded=0;" edge="1" parent="1" source="UVC26Ji7Nt3AM2qskTI1-8" target="UVC26Ji7Nt3AM2qskTI1-41">
          <mxGeometry relative="1" as="geometry">
            <mxPoint x="40" y="540" as="sourcePoint" />
            <mxPoint x="200" y="540" as="targetPoint" />
          </mxGeometry>
        </mxCell>
        <mxCell id="UVC26Ji7Nt3AM2qskTI1-46" value="" style="endArrow=none;html=1;rounded=0;" edge="1" parent="1" source="UVC26Ji7Nt3AM2qskTI1-40" target="UVC26Ji7Nt3AM2qskTI1-8">
          <mxGeometry relative="1" as="geometry">
            <mxPoint x="50" y="550" as="sourcePoint" />
            <mxPoint x="210" y="550" as="targetPoint" />
          </mxGeometry>
        </mxCell>
        <mxCell id="UVC26Ji7Nt3AM2qskTI1-47" value="" style="endArrow=none;html=1;rounded=0;" edge="1" parent="1" source="UVC26Ji7Nt3AM2qskTI1-8" target="UVC26Ji7Nt3AM2qskTI1-38">
          <mxGeometry relative="1" as="geometry">
            <mxPoint x="-100" y="570" as="sourcePoint" />
            <mxPoint x="60" y="570" as="targetPoint" />
          </mxGeometry>
        </mxCell>
        <mxCell id="UVC26Ji7Nt3AM2qskTI1-48" value="" style="endArrow=none;html=1;rounded=0;" edge="1" parent="1" source="UVC26Ji7Nt3AM2qskTI1-8" target="UVC26Ji7Nt3AM2qskTI1-37">
          <mxGeometry relative="1" as="geometry">
            <mxPoint x="-90" y="580" as="sourcePoint" />
            <mxPoint x="70" y="580" as="targetPoint" />
          </mxGeometry>
        </mxCell>
        <mxCell id="UVC26Ji7Nt3AM2qskTI1-49" value="" style="endArrow=none;html=1;rounded=0;" edge="1" parent="1" source="UVC26Ji7Nt3AM2qskTI1-8" target="UVC26Ji7Nt3AM2qskTI1-42">
          <mxGeometry relative="1" as="geometry">
            <mxPoint x="80" y="580" as="sourcePoint" />
            <mxPoint x="240" y="580" as="targetPoint" />
          </mxGeometry>
        </mxCell>
        <mxCell id="UVC26Ji7Nt3AM2qskTI1-50" value="" style="endArrow=none;html=1;rounded=0;" edge="1" parent="1" source="UVC26Ji7Nt3AM2qskTI1-8" target="UVC26Ji7Nt3AM2qskTI1-43">
          <mxGeometry relative="1" as="geometry">
            <mxPoint x="-70" y="600" as="sourcePoint" />
            <mxPoint x="90" y="600" as="targetPoint" />
          </mxGeometry>
        </mxCell>
        <mxCell id="UVC26Ji7Nt3AM2qskTI1-51" value="" style="endArrow=none;html=1;rounded=0;" edge="1" parent="1" source="UVC26Ji7Nt3AM2qskTI1-36" target="UVC26Ji7Nt3AM2qskTI1-8">
          <mxGeometry relative="1" as="geometry">
            <mxPoint x="151.14255871746445" y="-30.00522244437161" as="sourcePoint" />
            <mxPoint x="100" y="610" as="targetPoint" />
          </mxGeometry>
        </mxCell>
        <mxCell id="UVC26Ji7Nt3AM2qskTI1-53" value="tiene_etiqueta" style="shape=rhombus;perimeter=rhombusPerimeter;whiteSpace=wrap;html=1;align=center;" vertex="1" parent="1">
          <mxGeometry x="340" y="270" width="120" height="60" as="geometry" />
        </mxCell>
        <mxCell id="UVC26Ji7Nt3AM2qskTI1-54" value="" style="endArrow=none;html=1;rounded=0;" edge="1" parent="1" source="UVC26Ji7Nt3AM2qskTI1-53" target="UVC26Ji7Nt3AM2qskTI1-7">
          <mxGeometry relative="1" as="geometry">
            <mxPoint x="330" y="310" as="sourcePoint" />
            <mxPoint x="490" y="310" as="targetPoint" />
          </mxGeometry>
        </mxCell>
        <mxCell id="UVC26Ji7Nt3AM2qskTI1-55" value="" style="endArrow=none;html=1;rounded=0;" edge="1" parent="1" source="UVC26Ji7Nt3AM2qskTI1-53" target="UVC26Ji7Nt3AM2qskTI1-9">
          <mxGeometry relative="1" as="geometry">
            <mxPoint x="330" y="310" as="sourcePoint" />
            <mxPoint x="490" y="310" as="targetPoint" />
          </mxGeometry>
        </mxCell>
        <mxCell id="UVC26Ji7Nt3AM2qskTI1-56" value="favorito" style="shape=rhombus;perimeter=rhombusPerimeter;whiteSpace=wrap;html=1;align=center;" vertex="1" parent="1">
          <mxGeometry x="300" y="80" width="120" height="60" as="geometry" />
        </mxCell>
        <mxCell id="UVC26Ji7Nt3AM2qskTI1-58" value="" style="endArrow=none;html=1;rounded=0;" edge="1" parent="1" source="UVC26Ji7Nt3AM2qskTI1-8" target="UVC26Ji7Nt3AM2qskTI1-56">
          <mxGeometry relative="1" as="geometry">
            <mxPoint x="330" y="310" as="sourcePoint" />
            <mxPoint x="490" y="310" as="targetPoint" />
          </mxGeometry>
        </mxCell>
        <mxCell id="UVC26Ji7Nt3AM2qskTI1-59" value="" style="endArrow=none;html=1;rounded=0;" edge="1" parent="1" source="UVC26Ji7Nt3AM2qskTI1-56" target="UVC26Ji7Nt3AM2qskTI1-7">
          <mxGeometry relative="1" as="geometry">
            <mxPoint x="340" y="320" as="sourcePoint" />
            <mxPoint x="500" y="320" as="targetPoint" />
          </mxGeometry>
        </mxCell>
        <mxCell id="UVC26Ji7Nt3AM2qskTI1-60" value="fecha_favorito" style="ellipse;whiteSpace=wrap;html=1;align=center;" vertex="1" parent="1">
          <mxGeometry x="290" y="-40" width="100" height="40" as="geometry" />
        </mxCell>
        <mxCell id="UVC26Ji7Nt3AM2qskTI1-61" value="0,N" style="text;html=1;align=center;verticalAlign=middle;resizable=0;points=[];autosize=1;strokeColor=none;fillColor=none;" vertex="1" parent="1">
          <mxGeometry x="490" y="110" width="40" height="30" as="geometry" />
        </mxCell>
        <mxCell id="UVC26Ji7Nt3AM2qskTI1-62" value="0,N" style="text;html=1;align=center;verticalAlign=middle;resizable=0;points=[];autosize=1;strokeColor=none;fillColor=none;" vertex="1" parent="1">
          <mxGeometry x="210" y="108" width="40" height="30" as="geometry" />
        </mxCell>
        <mxCell id="UVC26Ji7Nt3AM2qskTI1-63" value="N,M" style="text;html=1;align=center;verticalAlign=middle;resizable=0;points=[];autosize=1;strokeColor=none;fillColor=none;" vertex="1" parent="1">
          <mxGeometry x="335" y="148" width="50" height="30" as="geometry" />
        </mxCell>
        <mxCell id="UVC26Ji7Nt3AM2qskTI1-65" value="1,N" style="text;html=1;align=center;verticalAlign=middle;resizable=0;points=[];autosize=1;strokeColor=none;fillColor=none;" vertex="1" parent="1">
          <mxGeometry x="360" y="370" width="40" height="30" as="geometry" />
        </mxCell>
        <mxCell id="UVC26Ji7Nt3AM2qskTI1-66" value="1,N" style="text;html=1;align=center;verticalAlign=middle;resizable=0;points=[];autosize=1;strokeColor=none;fillColor=none;" vertex="1" parent="1">
          <mxGeometry x="510" y="130" width="40" height="30" as="geometry" />
        </mxCell>
        <mxCell id="UVC26Ji7Nt3AM2qskTI1-67" value="N,M" style="text;html=1;align=center;verticalAlign=middle;resizable=0;points=[];autosize=1;strokeColor=none;fillColor=none;" vertex="1" parent="1">
          <mxGeometry x="375" y="240" width="50" height="30" as="geometry" />
        </mxCell>
        <mxCell id="UVC26Ji7Nt3AM2qskTI1-68" value="" style="endArrow=none;html=1;rounded=0;" edge="1" parent="1" source="UVC26Ji7Nt3AM2qskTI1-60" target="UVC26Ji7Nt3AM2qskTI1-56">
          <mxGeometry relative="1" as="geometry">
            <mxPoint x="330" y="190" as="sourcePoint" />
            <mxPoint x="490" y="190" as="targetPoint" />
          </mxGeometry>
        </mxCell>
        <mxCell id="UVC26Ji7Nt3AM2qskTI1-69" value="nombre" style="ellipse;whiteSpace=wrap;html=1;align=center;" vertex="1" parent="1">
          <mxGeometry x="-20" y="-110" width="100" height="40" as="geometry" />
        </mxCell>
        <mxCell id="UVC26Ji7Nt3AM2qskTI1-70" value="" style="endArrow=none;html=1;rounded=0;" edge="1" parent="1" source="UVC26Ji7Nt3AM2qskTI1-8" target="UVC26Ji7Nt3AM2qskTI1-69">
          <mxGeometry relative="1" as="geometry">
            <mxPoint x="143" y="100" as="sourcePoint" />
            <mxPoint x="4" y="-2" as="targetPoint" />
          </mxGeometry>
        </mxCell>
      </root>
    </mxGraphModel>
  </diagram>
</mxfile>
